<svg xmlns="http://www.w3.org/2000/svg" width="21.981" height="25.121" viewBox="0 0 21.981 25.121">
  <path id="Icon_awesome-shopping-bag" data-name="Icon awesome-shopping-bag" d="M17.27,7.85V6.28a6.28,6.28,0,0,0-12.56,0V7.85H0V21.2a3.925,3.925,0,0,0,3.925,3.925h14.13A3.925,3.925,0,0,0,21.981,21.2V7.85ZM7.85,6.28a3.14,3.14,0,1,1,6.28,0V7.85H7.85Zm7.85,5.888a1.178,1.178,0,1,1,1.178-1.178A1.178,1.178,0,0,1,15.7,12.168Zm-9.42,0A1.178,1.178,0,1,1,7.458,10.99,1.178,1.178,0,0,1,6.28,12.168Z" fill="#fff"/>
</svg>
